<mxfile host="app.diagrams.net" agent="Mozilla/5.0 (Macintosh; Intel Mac OS X 10_15_7) AppleWebKit/537.36 (KHTML, like Gecko) Chrome/130.0.0.0 Safari/537.36" version="24.8.4">
  <diagram name="Page-1" id="5yACLu_tYYQ9U0vQjmjW">
    <mxGraphModel dx="1122" dy="684" grid="1" gridSize="10" guides="1" tooltips="1" connect="1" arrows="1" fold="1" page="1" pageScale="1" pageWidth="827" pageHeight="1169" math="0" shadow="0">
      <root>
        <mxCell id="0" />
        <mxCell id="1" parent="0" />
        <mxCell id="NyU2-a-IUpIsPOEJ186r-68" value="&lt;span style=&quot;font-size: 24px;&quot;&gt;1&lt;/span&gt;" style="rounded=0;whiteSpace=wrap;html=1;" parent="1" vertex="1">
          <mxGeometry x="410" y="162.48999999999998" width="80" height="80" as="geometry" />
        </mxCell>
        <mxCell id="NyU2-a-IUpIsPOEJ186r-69" value="&lt;span style=&quot;font-size: 24px;&quot;&gt;0&lt;/span&gt;" style="rounded=0;whiteSpace=wrap;html=1;" parent="1" vertex="1">
          <mxGeometry x="490" y="162.48999999999998" width="80" height="80" as="geometry" />
        </mxCell>
        <mxCell id="NyU2-a-IUpIsPOEJ186r-70" value="&lt;span style=&quot;font-size: 24px;&quot;&gt;1&lt;/span&gt;" style="rounded=0;whiteSpace=wrap;html=1;" parent="1" vertex="1">
          <mxGeometry x="570" y="162.48999999999998" width="80" height="80" as="geometry" />
        </mxCell>
        <mxCell id="NyU2-a-IUpIsPOEJ186r-71" value="&lt;font style=&quot;font-size: 24px;&quot;&gt;...&lt;/font&gt;" style="rounded=0;whiteSpace=wrap;html=1;" parent="1" vertex="1">
          <mxGeometry x="729.52" y="162.48999999999998" width="80" height="80" as="geometry" />
        </mxCell>
        <mxCell id="NyU2-a-IUpIsPOEJ186r-75" value="&lt;font style=&quot;font-size: 24px;&quot;&gt;...&lt;/font&gt;" style="rounded=0;whiteSpace=wrap;html=1;" parent="1" vertex="1">
          <mxGeometry x="410" y="402.49" width="80" height="80" as="geometry" />
        </mxCell>
        <mxCell id="NyU2-a-IUpIsPOEJ186r-76" value="&lt;font style=&quot;font-size: 24px;&quot;&gt;...&lt;/font&gt;" style="rounded=0;whiteSpace=wrap;html=1;" parent="1" vertex="1">
          <mxGeometry x="490" y="402.49" width="80" height="80" as="geometry" />
        </mxCell>
        <mxCell id="NyU2-a-IUpIsPOEJ186r-77" value="&lt;font style=&quot;font-size: 24px;&quot;&gt;...&lt;/font&gt;" style="rounded=0;whiteSpace=wrap;html=1;" parent="1" vertex="1">
          <mxGeometry x="570" y="402.49" width="80" height="80" as="geometry" />
        </mxCell>
        <mxCell id="NyU2-a-IUpIsPOEJ186r-78" value="&lt;font style=&quot;font-size: 24px;&quot;&gt;...&lt;/font&gt;" style="rounded=0;whiteSpace=wrap;html=1;" parent="1" vertex="1">
          <mxGeometry x="729.52" y="402.49" width="80" height="80" as="geometry" />
        </mxCell>
        <mxCell id="NyU2-a-IUpIsPOEJ186r-89" value="" style="strokeWidth=2;html=1;shape=mxgraph.flowchart.annotation_2;align=left;labelPosition=right;pointerEvents=1;rotation=-180;" parent="1" vertex="1">
          <mxGeometry x="1070" y="190" width="50" height="360.02" as="geometry" />
        </mxCell>
        <mxCell id="NyU2-a-IUpIsPOEJ186r-90" value="&lt;font style=&quot;font-size: 24px;&quot;&gt;24 rows&lt;/font&gt;" style="text;html=1;align=center;verticalAlign=middle;resizable=0;points=[];autosize=1;strokeColor=none;fillColor=none;" parent="1" vertex="1">
          <mxGeometry x="1120" y="315.01" width="110" height="40" as="geometry" />
        </mxCell>
        <mxCell id="NyU2-a-IUpIsPOEJ186r-91" value="" style="strokeWidth=2;html=1;shape=mxgraph.flowchart.annotation_2;align=left;labelPosition=right;pointerEvents=1;rotation=90;" parent="1" vertex="1">
          <mxGeometry x="711.27" y="-176.25" width="50" height="602.52" as="geometry" />
        </mxCell>
        <mxCell id="NyU2-a-IUpIsPOEJ186r-92" value="&lt;font style=&quot;font-size: 24px;&quot;&gt;1290 columns&lt;/font&gt;" style="text;html=1;align=center;verticalAlign=middle;resizable=0;points=[];autosize=1;strokeColor=none;fillColor=none;" parent="1" vertex="1">
          <mxGeometry x="649.52" y="40" width="170" height="40" as="geometry" />
        </mxCell>
        <mxCell id="l5VGxjxB3sV_cJbCo6qy-2" value="&lt;span style=&quot;font-size: 24px;&quot;&gt;0&lt;/span&gt;" style="rounded=0;whiteSpace=wrap;html=1;" parent="1" vertex="1">
          <mxGeometry x="649.52" y="162.48999999999998" width="80" height="80" as="geometry" />
        </mxCell>
        <mxCell id="l5VGxjxB3sV_cJbCo6qy-3" value="&lt;font style=&quot;font-size: 24px;&quot;&gt;...&lt;/font&gt;" style="rounded=0;whiteSpace=wrap;html=1;" parent="1" vertex="1">
          <mxGeometry x="649.52" y="402.49" width="80" height="80" as="geometry" />
        </mxCell>
        <mxCell id="l5VGxjxB3sV_cJbCo6qy-5" value="&lt;span style=&quot;font-size: 24px;&quot;&gt;0&lt;/span&gt;" style="rounded=0;whiteSpace=wrap;html=1;" parent="1" vertex="1">
          <mxGeometry x="810" y="162.48999999999998" width="80" height="80" as="geometry" />
        </mxCell>
        <mxCell id="l5VGxjxB3sV_cJbCo6qy-6" value="&lt;span style=&quot;font-size: 24px;&quot;&gt;1&lt;/span&gt;" style="rounded=0;whiteSpace=wrap;html=1;" parent="1" vertex="1">
          <mxGeometry x="890" y="162.48999999999998" width="80" height="80" as="geometry" />
        </mxCell>
        <mxCell id="l5VGxjxB3sV_cJbCo6qy-7" value="&lt;span style=&quot;font-size: 24px;&quot;&gt;0&lt;/span&gt;" style="rounded=0;whiteSpace=wrap;html=1;" parent="1" vertex="1">
          <mxGeometry x="970" y="162.48999999999998" width="80" height="80" as="geometry" />
        </mxCell>
        <mxCell id="l5VGxjxB3sV_cJbCo6qy-8" value="&lt;font style=&quot;font-size: 24px;&quot;&gt;0&lt;/font&gt;" style="rounded=0;whiteSpace=wrap;html=1;" parent="1" vertex="1">
          <mxGeometry x="410" y="242.48999999999998" width="80" height="80" as="geometry" />
        </mxCell>
        <mxCell id="l5VGxjxB3sV_cJbCo6qy-9" value="&lt;span style=&quot;font-size: 24px;&quot;&gt;1&lt;/span&gt;" style="rounded=0;whiteSpace=wrap;html=1;" parent="1" vertex="1">
          <mxGeometry x="490" y="242.48999999999998" width="80" height="80" as="geometry" />
        </mxCell>
        <mxCell id="l5VGxjxB3sV_cJbCo6qy-10" value="&lt;span style=&quot;font-size: 24px;&quot;&gt;0&lt;/span&gt;" style="rounded=0;whiteSpace=wrap;html=1;" parent="1" vertex="1">
          <mxGeometry x="570" y="242.48999999999998" width="80" height="80" as="geometry" />
        </mxCell>
        <mxCell id="l5VGxjxB3sV_cJbCo6qy-11" value="&lt;font style=&quot;font-size: 24px;&quot;&gt;...&lt;/font&gt;" style="rounded=0;whiteSpace=wrap;html=1;" parent="1" vertex="1">
          <mxGeometry x="729.52" y="242.48999999999998" width="80" height="80" as="geometry" />
        </mxCell>
        <mxCell id="l5VGxjxB3sV_cJbCo6qy-12" value="&lt;span style=&quot;font-size: 24px;&quot;&gt;1&lt;/span&gt;" style="rounded=0;whiteSpace=wrap;html=1;" parent="1" vertex="1">
          <mxGeometry x="810" y="242.48999999999998" width="80" height="80" as="geometry" />
        </mxCell>
        <mxCell id="l5VGxjxB3sV_cJbCo6qy-13" value="&lt;span style=&quot;font-size: 24px;&quot;&gt;0&lt;/span&gt;" style="rounded=0;whiteSpace=wrap;html=1;" parent="1" vertex="1">
          <mxGeometry x="890" y="242.48999999999998" width="80" height="80" as="geometry" />
        </mxCell>
        <mxCell id="l5VGxjxB3sV_cJbCo6qy-14" value="&lt;span style=&quot;font-size: 24px;&quot;&gt;1&lt;/span&gt;" style="rounded=0;whiteSpace=wrap;html=1;" parent="1" vertex="1">
          <mxGeometry x="970" y="242.48999999999998" width="80" height="80" as="geometry" />
        </mxCell>
        <mxCell id="l5VGxjxB3sV_cJbCo6qy-16" value="&lt;span style=&quot;font-size: 24px;&quot;&gt;1&lt;/span&gt;" style="rounded=0;whiteSpace=wrap;html=1;" parent="1" vertex="1">
          <mxGeometry x="649.52" y="242.48999999999998" width="80" height="80" as="geometry" />
        </mxCell>
        <mxCell id="l5VGxjxB3sV_cJbCo6qy-22" value="&lt;font style=&quot;font-size: 24px;&quot;&gt;...&lt;/font&gt;" style="rounded=0;whiteSpace=wrap;html=1;" parent="1" vertex="1">
          <mxGeometry x="810.24" y="402.49" width="80" height="80" as="geometry" />
        </mxCell>
        <mxCell id="l5VGxjxB3sV_cJbCo6qy-23" value="&lt;font style=&quot;font-size: 24px;&quot;&gt;...&lt;/font&gt;" style="rounded=0;whiteSpace=wrap;html=1;" parent="1" vertex="1">
          <mxGeometry x="890.24" y="402.49" width="80" height="80" as="geometry" />
        </mxCell>
        <mxCell id="l5VGxjxB3sV_cJbCo6qy-24" value="&lt;font style=&quot;font-size: 24px;&quot;&gt;...&lt;/font&gt;" style="rounded=0;whiteSpace=wrap;html=1;" parent="1" vertex="1">
          <mxGeometry x="970.24" y="402.49" width="80" height="80" as="geometry" />
        </mxCell>
        <mxCell id="O_fTPmoWUDB-oltgQ6wL-1" value="&lt;span style=&quot;font-size: 24px;&quot;&gt;1&lt;/span&gt;" style="rounded=0;whiteSpace=wrap;html=1;" vertex="1" parent="1">
          <mxGeometry x="410" y="322.49" width="80" height="80" as="geometry" />
        </mxCell>
        <mxCell id="O_fTPmoWUDB-oltgQ6wL-2" value="&lt;span style=&quot;font-size: 24px;&quot;&gt;0&lt;/span&gt;" style="rounded=0;whiteSpace=wrap;html=1;" vertex="1" parent="1">
          <mxGeometry x="490" y="322.49" width="80" height="80" as="geometry" />
        </mxCell>
        <mxCell id="O_fTPmoWUDB-oltgQ6wL-3" value="&lt;span style=&quot;font-size: 24px;&quot;&gt;1&lt;/span&gt;" style="rounded=0;whiteSpace=wrap;html=1;" vertex="1" parent="1">
          <mxGeometry x="570" y="322.49" width="80" height="80" as="geometry" />
        </mxCell>
        <mxCell id="O_fTPmoWUDB-oltgQ6wL-4" value="&lt;font style=&quot;font-size: 24px;&quot;&gt;...&lt;/font&gt;" style="rounded=0;whiteSpace=wrap;html=1;" vertex="1" parent="1">
          <mxGeometry x="729.52" y="322.49" width="80" height="80" as="geometry" />
        </mxCell>
        <mxCell id="O_fTPmoWUDB-oltgQ6wL-5" value="&lt;span style=&quot;font-size: 24px;&quot;&gt;0&lt;/span&gt;" style="rounded=0;whiteSpace=wrap;html=1;" vertex="1" parent="1">
          <mxGeometry x="649.52" y="322.49" width="80" height="80" as="geometry" />
        </mxCell>
        <mxCell id="O_fTPmoWUDB-oltgQ6wL-6" value="&lt;span style=&quot;font-size: 24px;&quot;&gt;0&lt;/span&gt;" style="rounded=0;whiteSpace=wrap;html=1;" vertex="1" parent="1">
          <mxGeometry x="810" y="322.49" width="80" height="80" as="geometry" />
        </mxCell>
        <mxCell id="O_fTPmoWUDB-oltgQ6wL-7" value="&lt;span style=&quot;font-size: 24px;&quot;&gt;1&lt;/span&gt;" style="rounded=0;whiteSpace=wrap;html=1;" vertex="1" parent="1">
          <mxGeometry x="890" y="322.49" width="80" height="80" as="geometry" />
        </mxCell>
        <mxCell id="O_fTPmoWUDB-oltgQ6wL-8" value="&lt;span style=&quot;font-size: 24px;&quot;&gt;0&lt;/span&gt;" style="rounded=0;whiteSpace=wrap;html=1;" vertex="1" parent="1">
          <mxGeometry x="970" y="322.49" width="80" height="80" as="geometry" />
        </mxCell>
        <mxCell id="O_fTPmoWUDB-oltgQ6wL-9" value="&lt;font style=&quot;font-size: 24px;&quot;&gt;0&lt;/font&gt;" style="rounded=0;whiteSpace=wrap;html=1;" vertex="1" parent="1">
          <mxGeometry x="410" y="482.49" width="80" height="80" as="geometry" />
        </mxCell>
        <mxCell id="O_fTPmoWUDB-oltgQ6wL-10" value="&lt;span style=&quot;font-size: 24px;&quot;&gt;1&lt;/span&gt;" style="rounded=0;whiteSpace=wrap;html=1;" vertex="1" parent="1">
          <mxGeometry x="490" y="482.49" width="80" height="80" as="geometry" />
        </mxCell>
        <mxCell id="O_fTPmoWUDB-oltgQ6wL-11" value="&lt;span style=&quot;font-size: 24px;&quot;&gt;0&lt;/span&gt;" style="rounded=0;whiteSpace=wrap;html=1;" vertex="1" parent="1">
          <mxGeometry x="570" y="482.49" width="80" height="80" as="geometry" />
        </mxCell>
        <mxCell id="O_fTPmoWUDB-oltgQ6wL-12" value="&lt;font style=&quot;font-size: 24px;&quot;&gt;...&lt;/font&gt;" style="rounded=0;whiteSpace=wrap;html=1;" vertex="1" parent="1">
          <mxGeometry x="729.52" y="482.49" width="80" height="80" as="geometry" />
        </mxCell>
        <mxCell id="O_fTPmoWUDB-oltgQ6wL-13" value="&lt;span style=&quot;font-size: 24px;&quot;&gt;1&lt;/span&gt;" style="rounded=0;whiteSpace=wrap;html=1;" vertex="1" parent="1">
          <mxGeometry x="810" y="482.49" width="80" height="80" as="geometry" />
        </mxCell>
        <mxCell id="O_fTPmoWUDB-oltgQ6wL-14" value="&lt;span style=&quot;font-size: 24px;&quot;&gt;0&lt;/span&gt;" style="rounded=0;whiteSpace=wrap;html=1;" vertex="1" parent="1">
          <mxGeometry x="890" y="482.49" width="80" height="80" as="geometry" />
        </mxCell>
        <mxCell id="O_fTPmoWUDB-oltgQ6wL-15" value="&lt;span style=&quot;font-size: 24px;&quot;&gt;1&lt;/span&gt;" style="rounded=0;whiteSpace=wrap;html=1;" vertex="1" parent="1">
          <mxGeometry x="970" y="482.49" width="80" height="80" as="geometry" />
        </mxCell>
        <mxCell id="O_fTPmoWUDB-oltgQ6wL-16" value="&lt;span style=&quot;font-size: 24px;&quot;&gt;1&lt;/span&gt;" style="rounded=0;whiteSpace=wrap;html=1;" vertex="1" parent="1">
          <mxGeometry x="649.52" y="482.49" width="80" height="80" as="geometry" />
        </mxCell>
      </root>
    </mxGraphModel>
  </diagram>
</mxfile>
